<svg version="1.1" viewBox="0.0 0.0 445.5564304461942 100.0" fill="none" stroke="none" stroke-linecap="square" stroke-miterlimit="10" xmlns:xlink="http://www.w3.org/1999/xlink" xmlns="http://www.w3.org/2000/svg"><clipPath id="p.0"><path d="m0 0l445.55643 0l0 100.0l-445.55643 0l0 -100.0z" clip-rule="nonzero"/></clipPath><g clip-path="url(#p.0)"><path fill="#000000" fill-opacity="0.0" d="m0 0l445.55643 0l0 100.0l-445.55643 0z" fill-rule="evenodd"/><path fill="#000000" fill-opacity="0.0" d="m23.412073 -17.955381l406.77164 0l0 102.99213l-406.77164 0z" fill-rule="evenodd"/><path fill="#ffffff" d="m49.58395 81.582115q-7.46875 0 -11.296875 -4.25q-3.828125 -4.25 -3.828125 -12.1875l0 -3.7187462l9.71875 0l0 4.468746q0 6.34375 5.3125 6.34375q2.609375 0 3.96875 -1.53125q1.359375 -1.546875 1.359375 -5.0q0 -4.093746 -1.875 -7.218746q-1.859375 -3.140625 -6.90625 -7.515625q-6.34375 -5.609375 -8.875 -10.125q-2.515625 -4.53125 -2.515625 -10.234377q0 -7.734375 3.921875 -11.984375q3.921875 -4.249999 11.390625 -4.249999q7.375 0 11.15625 4.249999q3.7812462 4.25 3.7812462 12.171875l0 2.718752l-9.718746 0l0 -3.359377q0 -3.359375 -1.3125 -4.90625q-1.296875 -1.546875 -3.8125 -1.546875q-5.140625 0 -5.140625 6.265625q0 3.546877 1.90625 6.625002q1.921875 3.078125 6.96875 7.46875q6.4375 5.59375 8.859375 10.171875q2.4374962 4.5625 2.4374962 10.734371q0 8.015625 -3.9687462 12.3125q-3.96875 4.296875 -11.53125 4.296875zm29.405605 -56.9375l-10.734375 0l0 -9.328124l31.71875 0l0 9.328124l-10.71875 0l0 56.0l-10.265625 0l0 -56.0zm25.940231 -9.328124l28.000008 0l0 9.328124l-17.734383 0l0 17.265627l14.093758 0l0 9.34375l-14.093758 0l0 20.062496l17.734383 0l0 9.328125l-28.000008 0l0 -65.328125zm33.87815 0l15.125 0q7.640625 0 11.46875 4.109374q3.828125 4.109375 3.828125 12.03125l0 6.437502q0 7.9375 -3.828125 12.046875q-3.828125 4.109375 -11.46875 4.109375l-4.859375 0l0 26.593746l-10.265625 0l0 -65.328125zm15.125 29.390625q2.515625 0 3.765625 -1.390625q1.265625 -1.40625 1.265625 -4.765625l0 -7.750002q0 -3.359375 -1.265625 -4.75q-1.25 -1.40625 -3.765625 -1.40625l-4.859375 0l0 20.062502l4.859375 0zm20.899704 -29.390625l10.265625 0l0 26.59375l11.015625 0l0 -26.59375l10.265625 0l0 65.328125l-10.265625 0l0 -29.390621l-11.015625 0l0 29.390621l-10.265625 0l0 -65.328125zm39.19786 0l28.0 0l0 9.328124l-17.734375 0l0 17.265627l14.09375 0l0 9.34375l-14.09375 0l0 20.062496l17.734375 0l0 9.328125l-28.0 0l0 -65.328125zm33.878143 0l12.874985 0l9.984375 39.109375l0.1875 0l0 -39.109375l9.1562805 0l0 65.328125l-10.5469055 0l-12.328125 -47.687496l-0.1875 0l0 47.687496l-9.14061 0l0 -65.328125zm68.127426 66.265625q-7.46875 0 -11.296875 -4.25q-3.828125 -4.25 -3.828125 -12.1875l0 -3.7187462l9.71875 0l0 4.468746q0 6.34375 5.3125 6.34375q2.609375 0 3.96875 -1.53125q1.359375 -1.546875 1.359375 -5.0q0 -4.093746 -1.875 -7.218746q-1.859375 -3.140625 -6.90625 -7.515625q-6.34375 -5.609375 -8.875 -10.125q-2.515625 -4.53125 -2.515625 -10.234377q0 -7.734375 3.921875 -11.984375q3.921875 -4.249999 11.390625 -4.249999q7.375 0 11.15625 4.249999q3.78125 4.25 3.78125 12.171875l0 2.718752l-9.71875 0l0 -3.359377q0 -3.359375 -1.3125 -4.90625q-1.296875 -1.546875 -3.8125 -1.546875q-5.140625 0 -5.140625 6.265625q0 3.546877 1.90625 6.625002q1.921875 3.078125 6.96875 7.46875q6.4375 5.59375 8.859375 10.171875q2.4375 4.5625 2.4375 10.734371q0 8.015625 -3.96875 12.3125q-3.96875 4.296875 -11.53125 4.296875zm36.31186 0q-7.46875 0 -11.390625 -4.25q-3.921875 -4.25 -3.921875 -12.1875l0 -49.82812l10.265625 0l0 50.57812q0 3.359375 1.34375 4.859375q1.359375 1.484375 3.890625 1.484375q2.515625 0 3.859375 -1.484375q1.359375 -1.5 1.359375 -4.859375l0 -50.57812l9.890625 0l0 49.82812q0 7.9375 -3.921875 12.1875q-3.921875 4.25 -11.375 4.25zm22.580444 -66.265625l12.875 0l9.984375 39.109375l0.1875 0l0 -39.109375l9.15625 0l0 65.328125l-10.546875 0l-12.328125 -47.687496l-0.1875 0l0 47.687496l-9.140625 0l0 -65.328125z" fill-rule="nonzero"/></g></svg>